<?xml version="1.0" standalone="no"?>
<!DOCTYPE svg PUBLIC "-//W3C//DTD SVG 20010904//EN"
 "http://www.w3.org/TR/2001/REC-SVG-20010904/DTD/svg10.dtd">
<svg version="1.0" xmlns="http://www.w3.org/2000/svg"
 width="300.000000pt" height="149.000000pt" viewBox="0 0 300.000000 149.000000"
 preserveAspectRatio="xMidYMid meet">

<g transform="translate(0.000000,149.000000) scale(0.100000,-0.100000)"
fill="#000000" stroke="none">
<path d="M644 1449 c-52 -15 -71 -47 -102 -170 -16 -63 -44 -143 -61 -177 -48
-96 -100 -109 -101 -25 0 47 -16 48 -34 2 -15 -37 -15 -47 0 -132 21 -116 22
-120 34 -112 5 3 10 -3 10 -15 0 -16 -4 -20 -19 -15 -26 8 -39 -15 -18 -30 24
-17 22 -39 -3 -32 -15 4 -20 0 -20 -13 0 -10 5 -20 12 -22 6 -2 9 -12 5 -21
-4 -10 -12 -14 -22 -11 -10 4 -15 0 -15 -15 0 -12 5 -21 11 -21 6 0 9 -6 6
-12 -2 -7 -9 -12 -15 -11 -15 4 -26 -19 -48 -102 -10 -38 -20 -62 -22 -51 -3
15 -10 18 -44 13 -58 -8 -80 -34 -86 -100 -6 -71 8 -97 53 -97 65 0 105 60
295 440 131 263 206 386 269 443 51 46 125 84 192 98 84 18 17 48 -108 49 -35
0 -63 4 -63 9 0 12 63 51 97 60 41 11 38 27 -10 55 -34 21 -56 26 -103 25 -32
0 -73 -5 -90 -10z"/>
<path d="M1575 1411 c-64 -29 -122 -119 -164 -255 -26 -85 -27 -120 -1 -146
26 -26 94 -27 136 -1 62 38 127 154 160 286 19 76 11 109 -32 125 -35 14 -53
12 -99 -9z m47 -116 c-5 -42 -61 -174 -84 -197 -11 -11 -27 -18 -36 -16 -26 6
-18 65 18 144 37 81 57 106 84 102 17 -2 20 -9 18 -33z"/>
<path d="M1260 1401 c-5 -11 -10 -68 -10 -128 -1 -100 -4 -114 -35 -188 -18
-44 -31 -83 -29 -87 8 -13 61 -9 71 5 5 6 24 47 42 90 23 57 56 109 122 190
49 62 88 116 86 122 -5 13 -52 19 -71 8 -9 -5 -33 -33 -56 -62 l-40 -55 0 62
0 62 -35 0 c-24 0 -37 -6 -45 -19z"/>
<path d="M1791 1403 c-30 -57 -161 -395 -156 -403 9 -15 51 -12 64 4 7 8 27
52 46 97 l34 84 3 -95 c3 -94 3 -95 29 -98 14 -2 30 3 36 10 15 18 163 384
163 402 0 20 -53 22 -67 4 -5 -7 -25 -51 -44 -98 l-34 -85 -3 98 -3 97 -29 0
c-18 0 -33 -7 -39 -17z"/>
<path d="M2061 1403 c-30 -57 -161 -395 -156 -403 9 -15 51 -12 64 4 7 8 25
45 41 83 16 37 33 69 39 71 6 2 9 -29 8 -80 l-2 -83 29 -3 c16 -2 32 0 37 5 4
4 11 54 15 110 l7 101 68 97 c38 54 66 101 63 106 -3 5 -18 9 -34 9 -24 0 -37
-12 -84 -80 -31 -44 -61 -80 -66 -80 -10 0 -7 11 29 93 12 27 19 53 15 58 -10
16 -63 10 -73 -8z"/>
<path d="M2313 1408 c-20 -26 -164 -399 -158 -408 9 -15 51 -12 64 4 18 22
171 399 165 408 -8 13 -60 9 -71 -4z"/>
<path d="M2437 1258 c-58 -137 -104 -258 -99 -262 9 -10 59 -7 89 5 43 16 73
49 99 107 35 77 42 132 19 149 -24 17 -101 17 -108 1z m57 -87 c-11 -44 -48
-106 -67 -109 -16 -3 -16 1 4 50 12 29 25 63 30 75 12 33 41 19 33 -16z"/>
<path d="M2607 1258 c-58 -137 -104 -258 -99 -262 3 -3 29 -6 58 -6 49 0 55 3
68 29 18 33 13 41 -25 41 -22 0 -26 4 -22 20 4 14 14 20 33 20 30 0 46 14 52
45 2 15 -3 21 -20 23 -16 3 -22 8 -18 19 3 8 6 17 6 19 0 2 15 4 34 4 33 0 46
13 46 46 0 19 -105 20 -113 2z"/>
<path d="M2752 1258 c-13 -17 -102 -238 -102 -255 0 -9 17 -13 55 -13 43 0 56
4 65 19 18 35 12 51 -20 51 l-29 0 40 96 c22 52 37 99 34 105 -9 13 -31 11
-43 -3z"/>
<path d="M868 1220 c-153 -62 -210 -140 -422 -570 -63 -129 -134 -264 -157
-299 -60 -90 -118 -121 -165 -86 -26 20 -34 19 -34 -4 0 -31 47 -61 94 -61 94
0 179 86 286 287 254 479 329 590 410 608 82 18 51 -51 -94 -204 -145 -154
-155 -182 -116 -323 12 -44 20 -103 20 -149 0 -87 10 -102 62 -97 l33 3 0 85
c0 57 -8 117 -25 183 -24 97 -24 97 -5 132 10 20 49 61 87 92 99 81 167 159
201 232 39 82 42 145 8 172 -31 25 -119 25 -183 -1z"/>
<path d="M471 1189 c-18 -24 -28 -29 -47 -25 -23 6 -24 5 -24 -55 0 -52 2 -60
18 -57 26 5 101 151 83 162 -4 3 -18 -8 -30 -25z"/>
<path d="M2767 936 c-84 -31 -140 -96 -207 -239 -47 -100 -80 -215 -80 -279 0
-59 29 -96 81 -104 50 -8 145 13 174 39 30 27 141 295 127 309 -5 5 -38 8 -73
6 -63 -3 -64 -3 -82 -41 -10 -21 -20 -51 -24 -68 -5 -25 -2 -29 16 -29 25 0
26 -11 5 -51 -13 -26 -20 -30 -52 -27 l-37 3 1 50 c2 57 50 188 93 250 32 48
76 65 135 54 35 -7 44 -5 58 12 25 30 44 97 31 110 -18 18 -124 21 -166 5z"/>
<path d="M1048 928 c-17 -15 -171 -390 -192 -470 -8 -30 -12 -67 -9 -82 19
-96 216 -80 292 24 29 40 221 496 221 524 0 12 -11 16 -44 16 -24 0 -48 -6
-54 -12 -5 -7 -37 -82 -71 -166 -126 -316 -124 -312 -179 -312 -34 0 -35 0
-29 38 2 20 41 126 86 235 45 109 79 202 76 207 -9 14 -79 12 -97 -2z"/>
<path d="M1413 928 c-19 -24 -244 -589 -238 -599 11 -16 81 -10 97 9 8 9 37
73 64 141 l49 125 3 -137 c3 -136 3 -137 27 -143 53 -13 70 1 108 88 95 222
207 510 202 519 -11 16 -81 10 -98 -8 -8 -10 -38 -74 -65 -143 l-51 -125 -3
140 -3 140 -41 3 c-25 2 -45 -2 -51 -10z"/>
<path d="M1783 928 c-20 -24 -243 -582 -239 -595 3 -8 22 -13 45 -13 50 0 54
6 117 162 l49 121 5 -139 5 -139 35 -3 c19 -1 41 2 48 6 17 11 254 591 247
603 -7 10 -65 12 -88 3 -9 -3 -39 -65 -69 -137 l-53 -132 -5 135 -5 135 -41 3
c-25 2 -45 -2 -51 -10z"/>
<path d="M2146 918 c-28 -45 -237 -571 -232 -584 8 -21 80 -18 98 4 18 22 238
561 238 585 0 28 -85 24 -104 -5z"/>
<path d="M2306 918 c-29 -45 -238 -568 -232 -583 6 -17 58 -20 85 -6 10 6 41
70 72 148 l54 138 5 -145 5 -145 36 -3 c24 -2 40 3 50 15 19 22 239 562 239
586 0 13 -9 17 -44 17 -24 0 -48 -6 -53 -12 -6 -7 -32 -67 -58 -133 -27 -66
-53 -124 -58 -130 -6 -6 -7 28 -4 95 4 58 3 121 -1 140 -7 31 -11 35 -44 38
-29 3 -40 -2 -52 -20z"/>
<path d="M730 204 c-111 -10 -294 -38 -390 -60 -205 -48 -301 -86 -277 -110 3
-4 74 3 157 15 269 38 470 45 810 31 168 -7 317 -12 332 -11 15 0 61 20 102
42 80 43 97 70 54 83 -25 8 -717 16 -788 10z"/>
</g>
</svg>
